<?xml version="1.0" standalone="no"?>
<!DOCTYPE svg PUBLIC "-//W3C//DTD SVG 20010904//EN"
 "http://www.w3.org/TR/2001/REC-SVG-20010904/DTD/svg10.dtd">
<svg version="1.0" xmlns="http://www.w3.org/2000/svg"
 width="450.000000pt" height="450.000000pt" viewBox="0 0 450.000000 450.000000"
 preserveAspectRatio="xMidYMid meet">

<g transform="translate(0.000000,450.000000) scale(0.100000,-0.100000)"
fill="#000000" stroke="none">
<path d="M1140 2540 l0 -590 135 0 135 0 1 273 c1 149 3 319 5 377 l4 105 115
3 115 3 0 -86 0 -86 -32 6 c-58 9 -163 25 -170 25 -5 0 -8 -139 -8 -310 l0
-310 110 0 110 0 0 -290 0 -290 438 1 c240 0 433 2 427 4 -5 2 -77 25 -159 50
-134 42 -153 51 -197 92 -27 25 -55 63 -64 86 -8 23 -44 177 -80 342 -81 370
-87 390 -130 455 -19 29 -35 59 -35 69 1 23 68 -54 91 -106 11 -22 53 -193 94
-380 41 -186 84 -357 94 -379 35 -73 81 -102 272 -167 l174 -60 180 -3 180 -4
-152 49 c-193 61 -234 87 -274 176 -10 22 -52 194 -93 382 -74 338 -86 378
-132 439 -13 17 -24 39 -24 50 1 26 61 -42 88 -100 11 -23 54 -196 96 -383 42
-188 81 -355 87 -370 5 -15 29 -47 52 -71 38 -39 55 -47 202 -93 88 -28 170
-57 183 -65 17 -11 58 -14 195 -12 l172 3 -140 43 c-77 23 -160 55 -185 70
-83 51 -96 85 -184 486 -75 336 -82 362 -118 418 l-38 59 0 129 0 130 60 0
c60 0 60 0 60 30 l0 30 -692 2 -691 3 -1 175 -1 175 -137 3 -138 3 0 -591z
m670 60 c0 -105 -4 -121 -25 -101 -6 5 -27 14 -47 21 l-38 12 0 89 0 89 55 0
55 0 0 -110z m242 25 c0 -44 -4 -80 -8 -80 -21 1 -141 17 -161 22 -21 5 -23
11 -23 74 l0 70 96 -3 96 -3 0 -80z m168 -26 c0 -61 -3 -109 -8 -107 -4 2 -28
11 -55 22 l-47 19 0 88 0 89 55 0 55 0 0 -111z m240 25 l0 -86 -27 6 c-16 3
-50 8 -78 11 -88 11 -85 8 -85 86 l0 69 95 0 95 0 0 -86z m170 -24 c0 -60 -2
-110 -4 -110 -2 0 -28 11 -58 24 l-55 24 4 84 c1 45 3 84 3 86 0 1 25 2 55 2
l55 0 0 -110z"/>
<path d="M1140 1645 l0 -275 245 0 245 0 0 275 0 275 -245 0 -245 0 0 -275z"/>
</g>
</svg>
