<?xml version="1.0" standalone="no"?>
<!DOCTYPE svg PUBLIC "-//W3C//DTD SVG 20010904//EN"
 "http://www.w3.org/TR/2001/REC-SVG-20010904/DTD/svg10.dtd">
<svg version="1.0" xmlns="http://www.w3.org/2000/svg"
 width="360.000000pt" height="360.000000pt" viewBox="0 0 360.000000 360.000000"
 preserveAspectRatio="xMidYMid meet">

<g transform="translate(0.000000,360.000000) scale(0.100000,-0.100000)"
fill="#000000" stroke="none">
<path d="M912 3108 c-7 -7 -12 -40 -12 -78 l0 -65 40 0 40 0 0 65 c0 67 -10
90 -40 90 -9 0 -21 -5 -28 -12z"/>
<path d="M1177 2960 l-52 -49 27 -26 c15 -14 31 -25 35 -25 18 0 93 87 93 108
0 18 -25 42 -45 42 -4 0 -30 -22 -58 -50z"/>
<path d="M617 2983 c-19 -18 -4 -56 35 -93 23 -22 46 -40 52 -40 6 0 19 12 30
26 l18 26 -43 44 c-40 40 -75 55 -92 37z"/>
<path d="M832 2894 c-190 -95 -188 -366 3 -467 53 -28 175 -30 222 -4 93 50
153 141 153 233 0 153 -109 264 -260 264 -51 0 -78 -6 -118 -26z"/>
<path d="M1250 2670 l0 -41 71 3 c55 2 74 7 83 21 8 12 8 22 0 35 -9 13 -28
18 -83 20 l-71 3 0 -41z"/>
<path d="M502 2678 c-7 -7 -12 -19 -12 -28 0 -30 23 -40 92 -40 l68 0 0 40 0
40 -68 0 c-40 0 -73 -5 -80 -12z"/>
<path d="M1172 2457 c-12 -13 -22 -28 -22 -34 0 -15 87 -93 103 -93 19 0 37
21 37 44 0 18 -75 106 -90 106 -4 0 -16 -10 -28 -23z"/>
<path d="M667 2422 c-48 -49 -56 -69 -35 -90 25 -25 49 -13 111 54 l27 30 -28
27 -28 27 -47 -48z"/>
<path d="M922 2289 c2 -55 7 -74 21 -83 12 -8 22 -8 35 0 13 9 18 28 20 83 l3
71 -41 0 -41 0 3 -71z"/>
<path d="M978 2098 c-15 -12 -33 -73 -113 -378 -18 -69 -67 -255 -110 -414
-56 -209 -75 -294 -68 -305 9 -14 78 -17 563 -23 304 -5 555 -9 556 -11 2 -2
4 -86 4 -187 l2 -185 -169 -5 c-92 -3 -175 -9 -185 -13 -23 -12 -42 -62 -34
-92 14 -56 16 -56 478 -56 l423 1 23 25 c29 35 29 79 -3 110 -24 25 -27 25
-195 25 l-170 0 0 190 0 190 103 0 c286 1 1004 12 1015 15 6 3 12 18 12 34 0
16 -51 220 -114 453 -63 233 -124 461 -136 508 -12 47 -29 95 -36 108 l-14 22
-908 0 c-712 0 -912 -3 -924 -12z m1781 -140 c114 -426 231 -867 231 -873 0
-3 -493 -5 -1096 -5 -982 0 -1096 2 -1090 15 5 15 61 220 182 675 30 113 57
211 59 218 3 9 183 12 853 12 l849 0 12 -42z"/>
<path d="M1096 1928 c-3 -7 -9 -28 -15 -47 -20 -61 -20 -61 88 -61 l99 0 7 46
c3 26 9 53 12 60 4 11 -14 14 -91 14 -69 0 -98 -4 -100 -12z"/>
<path d="M1321 1890 c-6 -28 -11 -55 -11 -60 0 -6 42 -10 95 -10 l95 0 0 29
c0 16 3 43 6 60 l7 31 -91 0 -90 0 -11 -50z"/>
<path d="M1550 1918 c0 -13 -3 -40 -6 -60 l-7 -38 96 0 c107 0 107 0 107 76
l0 44 -95 0 c-92 0 -95 -1 -95 -22z"/>
<path d="M1780 1880 l0 -60 120 0 120 0 0 29 c0 16 -3 43 -6 60 l-6 31 -114 0
-114 0 0 -60z"/>
<path d="M2060 1880 l0 -60 99 0 100 0 -5 38 c-12 88 -4 82 -104 82 l-90 0 0
-60z"/>
<path d="M2290 1903 c0 -82 1 -83 104 -83 l92 0 -10 60 -10 60 -88 0 -88 0 0
-37z"/>
<path d="M2510 1930 c0 -5 5 -32 11 -60 l11 -50 100 0 c90 0 99 2 94 18 -3 9
-10 36 -16 60 l-11 42 -94 0 c-54 0 -95 -4 -95 -10z"/>
<path d="M1053 1767 c-5 -8 -43 -143 -43 -152 0 -3 48 -4 107 -3 l108 3 11 50
c7 28 13 64 13 80 l1 30 -96 0 c-53 0 -98 -3 -101 -8z"/>
<path d="M1311 1768 c-12 -4 -20 -21 -24 -50 -3 -23 -9 -58 -13 -75 l-6 -33
100 0 100 0 6 40 c3 22 9 58 12 79 l5 39 -81 4 c-45 2 -90 0 -99 -4z"/>
<path d="M1774 1771 c-2 -2 -4 -40 -4 -83 l0 -78 131 0 131 0 -7 78 c-4 42 -8
78 -9 79 -3 3 -238 8 -242 4z"/>
<path d="M2348 1772 c-43 -4 -44 -8 -32 -109 l7 -53 98 0 c113 0 109 -5 87
101 l-12 57 -55 4 c-31 2 -73 2 -93 0z"/>
<path d="M1526 1724 c-3 -26 -6 -62 -6 -81 l0 -34 103 3 102 3 3 78 3 77 -99
0 -99 0 -7 -46z"/>
<path d="M2064 1739 c3 -17 6 -53 6 -80 l0 -49 105 0 106 0 -7 68 c-3 37 -7
73 -10 80 -2 8 -32 12 -105 12 l-101 0 6 -31z"/>
<path d="M2543 1748 c3 -13 11 -49 17 -80 l11 -58 105 0 c119 0 114 -6 86 95
l-17 60 -104 3 c-103 3 -103 3 -98 -20z"/>
<path d="M995 1558 c-8 -24 -45 -163 -45 -170 0 -7 221 1 230 9 8 7 37 163 31
168 -2 3 -51 5 -108 5 -74 0 -105 -4 -108 -12z"/>
<path d="M1250 1518 c-6 -29 -14 -72 -17 -95 l-6 -43 106 0 c121 0 113 -7 123
110 l7 80 -101 0 -100 0 -12 -52z"/>
<path d="M1507 1548 c-3 -13 -9 -53 -12 -90 l-7 -67 106 -3 c59 -2 111 -1 116
0 6 2 10 44 10 93 l0 89 -104 0 c-99 0 -104 -1 -109 -22z"/>
<path d="M1760 1474 l0 -97 137 7 c76 4 139 9 141 11 2 1 0 42 -4 89 l-7 86
-133 0 -134 0 0 -96z"/>
<path d="M2076 1483 c4 -49 8 -90 10 -92 7 -8 213 -11 217 -4 3 5 0 47 -6 96
l-10 87 -109 0 -109 0 7 -87z"/>
<path d="M2336 1510 c4 -33 10 -75 13 -93 l7 -32 104 3 c58 2 106 5 107 5 0 1
-6 41 -15 90 l-15 87 -104 0 -104 0 7 -60z"/>
<path d="M2581 1553 c0 -10 8 -52 17 -93 l17 -75 113 -2 c130 -2 123 -10 90
108 l-21 79 -109 0 c-97 0 -108 -2 -107 -17z"/>
<path d="M912 1253 c-12 -49 -22 -94 -22 -101 0 -10 28 -12 123 -10 l122 3 17
85 c9 47 17 91 18 98 0 9 -30 12 -118 12 l-117 0 -23 -87z"/>
<path d="M1202 1273 c-6 -38 -14 -83 -18 -101 l-7 -33 119 3 119 3 11 85 c7
47 13 91 13 98 1 9 -28 12 -112 12 l-113 0 -12 -67z"/>
<path d="M1471 1252 c-6 -49 -11 -94 -11 -100 0 -9 34 -12 119 -12 137 0 127
-9 130 118 l2 82 -114 0 -114 0 -12 -88z"/>
<path d="M1750 1240 l0 -100 144 0 c88 0 147 4 151 10 4 6 3 51 -1 100 l-7 90
-143 0 -144 0 0 -100z"/>
<path d="M2084 1294 c3 -26 6 -71 6 -100 l0 -54 118 0 c65 0 121 2 123 4 2 3
0 48 -5 100 l-9 96 -120 0 -120 0 7 -46z"/>
<path d="M2364 1278 c4 -35 9 -80 12 -100 l6 -38 115 0 116 0 -7 53 c-4 28
-12 73 -17 100 l-11 47 -110 0 -110 0 6 -62z"/>
<path d="M2625 1318 c8 -35 35 -169 35 -174 0 -2 56 -4 125 -4 69 0 125 3 125
6 0 3 -7 29 -14 57 -8 29 -20 71 -26 95 l-11 42 -120 0 c-119 0 -119 0 -114
-22z"/>
</g>
</svg>
