<?xml version="1.0" standalone="no"?>
<!DOCTYPE svg PUBLIC "-//W3C//DTD SVG 20010904//EN"
 "http://www.w3.org/TR/2001/REC-SVG-20010904/DTD/svg10.dtd">
<svg version="1.0" xmlns="http://www.w3.org/2000/svg"
 width="500.000000pt" height="500.000000pt" viewBox="0 0 500.000000 500.000000"
 preserveAspectRatio="xMidYMid meet">

<g transform="translate(0.000000,500.000000) scale(0.100000,-0.100000)"
fill="#000000" stroke="none">
<path d="M2975 4159 c-105 -24 -178 -71 -220 -143 -9 -15 -16 -15 -94 5 -174
44 -333 -5 -383 -117 l-20 -45 -41 7 c-139 24 -230 -17 -257 -115 -8 -31 -16
-38 -57 -53 -98 -35 -173 -126 -173 -209 0 -91 74 -145 185 -137 67 6 146 41
185 83 l22 23 44 -19 c125 -56 261 -20 296 77 9 25 16 33 28 28 88 -37 129
-45 218 -45 91 -1 100 1 166 35 l69 36 61 -30 c120 -59 253 -63 362 -11 71 34
108 69 141 135 66 130 44 286 -54 388 -42 43 -137 92 -211 107 -62 13 -210 13
-267 0z"/>
<path d="M1680 3218 c0 -12 -7 -30 -17 -40 -14 -16 -15 -23 -3 -57 11 -34 9
-109 -9 -468 -12 -235 -24 -484 -27 -553 -8 -188 5 -170 -124 -170 l-110 0 0
-415 0 -415 -40 0 -41 0 3 -132 3 -133 1185 0 1185 0 3 133 3 132 -41 0 -40 0
-2 415 -3 416 -225 115 c-124 63 -285 146 -357 184 l-133 70 0 -169 c0 -92 -3
-170 -6 -174 -4 -3 -61 22 -128 57 -66 35 -219 114 -338 175 l-218 112 0 -186
0 -185 -114 0 -113 0 -6 93 c-4 50 -11 191 -17 312 -6 121 -17 341 -25 490 -8
167 -10 276 -4 286 12 22 12 54 0 77 -5 9 -12 25 -15 35 -5 15 -19 17 -116 17
-106 0 -110 -1 -110 -22z m108 -1665 l3 -73 -76 0 -75 0 0 68 c0 38 3 72 7 76
4 4 37 6 73 4 l65 -3 3 -72z m197 2 l0 -70 -72 -3 -73 -3 0 70 c0 46 4 71 13
75 6 2 39 4 72 3 l60 -2 0 -70z m253 -2 l3 -73 -69 0 c-64 0 -70 2 -75 23 -3
17 -2 112 2 125 1 2 31 2 69 0 l67 -3 3 -72z m200 -1 l3 -73 -73 3 -73 3 -3
67 c-3 76 -2 77 88 75 l55 -2 3 -73z m260 1 l3 -73 -71 0 -70 0 0 75 0 76 68
-3 67 -3 3 -72z m202 3 l0 -76 -70 0 -70 0 0 68 c0 38 2 71 4 73 3 2 34 6 70
7 l66 3 0 -75z m244 68 c13 -5 16 -21 16 -76 l0 -69 -72 3 -73 3 -3 59 c-2 32
-1 65 2 72 6 15 99 20 130 8z m214 -71 l3 -73 -76 0 -75 0 0 68 c0 38 3 72 7
76 4 4 37 6 73 4 l65 -3 3 -72z m-1568 -203 l0 -70 -75 0 -75 0 0 70 0 70 75
0 75 0 0 -70z m198 3 l-3 -68 -72 -3 -73 -3 0 71 0 70 75 0 76 0 -3 -67z m252
-3 l0 -70 -69 0 -69 0 -4 70 -3 70 73 0 72 0 0 -70z m200 0 l0 -70 -75 0 -75
0 0 70 0 70 75 0 75 0 0 -70z m260 0 l0 -70 -70 0 -70 0 0 70 0 70 70 0 70 0
0 -70z m200 0 l0 -70 -70 0 -70 0 0 70 0 70 70 0 70 0 0 -70z m260 0 l0 -70
-75 0 -75 0 0 70 0 70 75 0 75 0 0 -70z m200 0 l0 -70 -75 0 -75 0 0 70 0 70
75 0 75 0 0 -70z"/>
</g>
</svg>
